# xmcd
#
# Track frame offsets: 
#        150
#        19979
#        43975
#        55683
#        74637
#        92181
#        103212
#        132058
#        153283
#        188993
#        220324
#        246927
#        271195
#
# Disc length: 3748 seconds
#
# Revision: 1
# Processed by: cddbd v1.5.2PL0 Copyright (c) Steve Scherf et al.
# Submitted via: ExactAudioCopy v0.99pb5
#
DISCID=c20ea20d
DTITLE=Too Slim And The Taildraggers - Bootleg Series Vol. 1
DYEAR=2001
DGENRE=Blues
TTITLE0=Western Man
TTITLE1=Waitin' for the Sun to Shine
TTITLE2=One More Shot
TTITLE3=Uranium Rock
TTITLE4=A Girl Like Mine
TTITLE5=I Feel So Good
TTITLE6=Chicken Shake
TTITLE7=Drinkin' Blues
TTITLE8=How Many More Years
TTITLE9=So Many Roads
TTITLE10=Shake' em on Down
TTITLE11=Swamp Opera
TTITLE12=Tiger Love and Turnip Greens
EXTD=YEAR: 2001
EXTT0=
EXTT1=
EXTT2=
EXTT3=
EXTT4=
EXTT5=
EXTT6=
EXTT7=
EXTT8=
EXTT9=
EXTT10=
EXTT11=
EXTT12=
PLAYORDER=
